<svg width="32" height="32" viewBox="0 0 32 32" fill="none" xmlns="http://www.w3.org/2000/svg">
  <rect width="32" height="32" rx="6" fill="#3B82F6"/>
  <path d="M8 6C8 4.89543 8.89543 4 10 4H22C23.1046 4 24 4.89543 24 6V26C24 27.1046 23.1046 28 22 28H10C8.89543 28 8 27.1046 8 26V6Z" fill="white"/>
  <path d="M12 8H20V10H12V8Z" fill="#3B82F6"/>
  <path d="M12 12H20V14H12V12Z" fill="#3B82F6"/>
  <path d="M12 16H20V18H12V16Z" fill="#3B82F6"/>
  <path d="M12 20H20V22H12V20Z" fill="#3B82F6"/>
  <circle cx="10" cy="10" r="1" fill="#3B82F6"/>
  <circle cx="10" cy="14" r="1" fill="#3B82F6"/>
  <circle cx="10" cy="18" r="1" fill="#3B82F6"/>
  <circle cx="10" cy="22" r="1" fill="#3B82F6"/>
  <circle cx="22" cy="10" r="1" fill="#3B82F6"/>
  <circle cx="22" cy="14" r="1" fill="#3B82F6"/>
  <circle cx="22" cy="18" r="1" fill="#3B82F6"/>
  <circle cx="22" cy="22" r="1" fill="#3B82F6"/>
</svg>
